<svg
        width="64"
        height="64"
        viewBox="0 0 64 64"
        fill="none"
        xmlns="http://www.w3.org/2000/svg"
>
    <path
            d="M13 6C9.14062 6 6 9.14062 6 13V51C6 54.8594 9.14062 58 13 58H51C54.8594 58 58 54.8594 58 51V13C58 9.14062 54.8594 6 51 6H13ZM13 8H51C53.7578 8 56 10.2422 56 13V51C56 53.7578 53.7578 56 51 56H13C10.2422 56 8 53.7578 8 51V15C8 15.5508 8.44531 16 9 16C9.55469 16 10 15.5508 10 15V13C10 12.4492 9.55469 12 9 12C8.44531 12 8 12.4492 8 13C8 10.2422 10.2422 8 13 8ZM14 12C13.4453 12 13 12.4492 13 13V15C13 15.5508 13.4453 16 14 16C14.5547 16 15 15.5508 15 15V13C15 12.4492 14.5547 12 14 12ZM19 12C18.4453 12 18 12.4492 18 13V15C18 15.5508 18.4453 16 19 16C19.5547 16 20 15.5508 20 15V13C20 12.4492 19.5547 12 19 12ZM24 12C23.4453 12 23 12.4492 23 13V15C23 15.5508 23.4453 16 24 16C24.5547 16 25 15.5508 25 15V13C25 12.4492 24.5547 12 24 12ZM29 12C28.4453 12 28 12.4492 28 13V15C28 15.5508 28.4453 16 29 16C29.5547 16 30 15.5508 30 15V13C30 12.4492 29.5547 12 29 12ZM34 12C33.4453 12 33 12.4492 33 13V15C33 15.5508 33.4453 16 34 16C34.5547 16 35 15.5508 35 15V13C35 12.4492 34.5547 12 34 12ZM39 12C38.4453 12 38 12.4492 38 13V15C38 15.5508 38.4453 16 39 16C39.5547 16 40 15.5508 40 15V13C40 12.4492 39.5547 12 39 12ZM44 12C43.4453 12 43 12.4492 43 13V15C43 15.5508 43.4453 16 44 16C44.5547 16 45 15.5508 45 15V13C45 12.4492 44.5547 12 44 12ZM49 12C48.4453 12 48 12.4492 48 13V15C48 15.5508 48.4453 16 49 16C49.5547 16 50 15.5508 50 15V13C50 12.4492 49.5547 12 49 12ZM54 12C53.4453 12 53 12.4492 53 13V15C53 15.5508 53.4453 16 54 16C54.5547 16 55 15.5508 55 15V13C55 12.4492 54.5547 12 54 12ZM29.1445 22.7344C27.6133 22.7617 26.3555 22.8906 25.4492 23.3359C24.7891 23.6602 23.793 24.5078 23.9375 25.4062C24.0156 25.8867 24.3984 26.2539 24.8867 26.3203C25.25 26.3672 25.7461 26.5234 25.9453 26.793C26.207 27.1484 26.3359 28.2109 26.332 28.9219C26.4648 30.8359 26.3281 32.9062 26.0469 33.5742C25.7227 33.3594 24.918 32.5586 23.1875 29.5664C22.0469 27.5977 21.1641 25.3828 21.1562 25.3555C21.1055 25.2422 20.8516 24.6445 20.3398 24.2695C19.7969 23.875 19.1367 23.75 19.0117 23.7305C18.9531 23.7187 18.9258 23.707 18.8398 23.7148L13.2461 23.75C12.9414 23.7617 11.918 23.8359 11.3633 24.4922C10.7617 25.207 11.0625 26.1953 11.1875 26.5234C11.3672 26.9492 15.6797 36.957 20.6875 42.1719C25.3359 47.0156 30.582 46.9062 31.1055 46.8867H33.4102C33.4492 46.8867 33.4844 46.8867 33.5195 46.8789C33.7031 46.8594 34.625 46.7305 35.207 46.1016C35.7852 45.4805 35.8008 44.5625 35.7969 44.3867C35.7812 43.1797 36.1367 41.8789 36.4648 41.7656C36.8516 41.8047 37.8359 42.9336 38.4258 43.6094C39.1914 44.4844 39.9805 45.3906 40.8555 45.9922C42.0742 46.832 43.1328 46.9805 43.7227 46.9805C43.8828 46.9805 44.0078 46.9688 44.0938 46.957L49.2812 46.8867C49.5898 46.8672 51.1562 46.7109 51.7773 45.5312C52.0352 45.0352 52.1992 44.2031 51.5 43.0352C50.6484 41.4805 48.832 39.6367 47.4609 38.3594L47.3672 38.2773C46.4219 37.3984 45.6094 36.6445 45.6016 36.3242C45.5937 35.9297 46.3672 34.9297 47.3477 33.6602C47.7383 33.1602 48.1836 32.582 48.6875 31.9102C52.0703 27.4023 52.1992 25.8828 51.8789 24.9961C51.375 23.582 49.3672 23.6914 48.832 23.75L43.0742 23.7852C42.8398 23.7656 42.2656 23.7578 41.7578 24.0625C41.2187 24.3828 40.9219 24.9609 40.8164 25.1992C40.8086 25.2227 39.9023 27.6133 38.7227 29.6133C37.125 32.3281 36.2656 33.1992 35.9023 33.4766C35.6992 33.0039 35.7266 31.9219 35.7461 31.293C35.7539 31.0391 35.7617 30.793 35.7617 30.5625C35.7617 29.5859 35.7969 28.7461 35.8242 28.0195C35.9258 25.543 36.0039 23.5859 33.7227 23.0352C33 22.8594 32.4727 22.7539 30.7656 22.7344C30.1953 22.7305 29.6563 22.7266 29.1445 22.7344ZM30.7461 24.7344C32.3086 24.7539 32.707 24.8477 33.2539 24.9805C33.8164 25.1172 33.9336 25.2383 33.8242 27.9375C33.793 28.6875 33.7617 29.5586 33.7617 30.5625C33.7617 30.7773 33.7539 31.0039 33.7461 31.2383C33.707 32.6953 33.6562 34.5117 34.9648 35.3594C35.3125 35.582 35.7383 35.6484 36.1641 35.5469C36.9141 35.3672 38.082 34.6484 40.4492 30.6289C41.7148 28.4805 42.6484 26.0039 42.6602 25.9688C42.6797 25.9297 42.7578 25.8008 42.7617 25.7891C42.7891 25.7773 42.8594 25.7773 42.8906 25.7773C42.9414 25.7852 42.9961 25.7891 43.0312 25.7852L48.8984 25.75C48.9336 25.75 48.9727 25.7461 49.0078 25.7422C49.3437 25.7031 49.7617 25.7266 49.9844 25.7812C49.9375 26.1641 49.5625 27.4102 47.0859 30.7148C46.5898 31.375 46.1484 31.9414 45.7656 32.4375C42.7539 36.332 42.9648 36.9219 46.0078 39.7461L46.0977 39.8281C47.8867 41.4844 49.1797 42.9648 49.7383 43.9961C49.7461 44.0078 49.7891 44.082 49.7969 44.0938C50.0117 44.4453 50 44.6016 50.0039 44.6016C49.9336 44.7031 49.5195 44.8633 49.2031 44.8867L44 44.957C43.9531 44.957 43.8867 44.9648 43.8438 44.9727C43.8125 44.9766 43.0508 45.0742 41.9844 44.3438C41.3203 43.8867 40.6172 43.0781 39.9336 42.2969C38.8008 41 37.7227 39.7656 36.4844 39.7656C36.293 39.7656 36.0977 39.793 35.9023 39.8555C33.8437 40.5078 33.7891 43.7656 33.7969 44.4062C33.7969 44.5273 33.7617 44.7031 33.7461 44.7383C33.6875 44.7891 33.4922 44.8594 33.3438 44.8867H31.0781C31.0625 44.8867 31.043 44.8867 31.0234 44.8906C30.8359 44.9023 26.2617 45.0898 22.1289 40.7852C17.4023 35.8672 13.1211 25.9609 13.043 25.7812C13.125 25.7617 13.2109 25.7539 13.2773 25.75L18.7383 25.7148C18.8711 25.7461 19.0508 25.8086 19.1523 25.8828C19.1914 25.9141 19.2695 26.0313 19.2969 26.0977C19.3359 26.1953 20.2383 28.4687 21.4531 30.5703C23.6992 34.4531 25.25 36.3711 27 35.4219C28.418 34.6484 28.5039 31.3828 28.3281 28.8633C28.332 28.5039 28.3164 26.6445 27.5547 25.6094C27.3555 25.3398 27.1172 25.1211 26.8594 24.9531C27.8945 24.707 29.5664 24.7227 30.7461 24.7344Z"
            fill="black"
    />
</svg>