<svg
        width="64"
        height="64"
        viewBox="0 0 64 64"
        fill="none"
        xmlns="http://www.w3.org/2000/svg"
>
    <path
            d="M31 2C15.0117 2 2 15.0117 2 31C2 43.6484 10.1445 54.4258 21.457 58.3789C21.6172 58.4922 21.8086 58.5625 22.0117 58.5664C24.8398 59.4922 27.8633 60 31 60C46.9883 60 60 46.9883 60 31C60 15.0117 46.9883 2 31 2ZM31 4C45.8867 4 58 16.1133 58 31C58 42.6602 50.5703 52.6133 40.1992 56.3867C40.0898 56.0625 40 55.582 40 55.2539V50C40 47.9062 38.9766 45.625 37.9688 44.0938C43.5195 43.1562 49.8633 40.2773 49.8633 29.5312C49.8633 26.5859 48.9414 23.9883 47.125 21.8008C47.5234 20.4883 48.0156 17.7188 46.6406 14.2422C46.5312 13.9648 46.3008 13.75 46.0156 13.6562C45.7344 13.5703 43.168 12.9023 37.8398 16.3984C35.6719 15.8398 33.3789 15.5508 31 15.543C28.6328 15.5508 26.3359 15.8398 24.1758 16.3984C18.8477 12.8984 16.2734 13.5664 15.9961 13.6562C15.7109 13.75 15.4805 13.9648 15.3711 14.2422C13.9922 17.7227 14.4844 20.4883 14.8906 21.8008C13.0664 23.9883 12.1445 26.5859 12.1445 29.5312C12.1445 40.1797 18.375 43.1133 23.8789 44.0898C23.1875 44.9648 22.4609 46.0977 22.1406 47.25C20.7188 47.6445 17.8047 47.6562 15.8477 44.3047C15.7773 44.1758 14.0664 41.1367 10.6914 40.9023C10.1563 40.9062 8.79688 40.9922 8.46875 42.0312C8.10547 43.1836 9.37891 44.0586 9.92578 44.4297C9.96094 44.4531 10.0156 44.4844 10.0508 44.5039C10.1133 44.5352 11.5703 45.3008 12.6562 48.0352C12.8828 48.75 14.8711 54.1367 22.0078 53.1875C22.0117 53.9766 22.0078 54.375 22 54.6914V55.25C22 55.5742 21.9023 56.0625 21.793 56.3789C11.4219 52.6055 4 42.6523 4 31C4 16.1133 16.1133 4 31 4ZM30.7578 7.00391C26.8594 7.04687 23.0039 8.07422 19.6094 10.0156C19.1289 10.2852 18.9609 10.8984 19.2344 11.375C19.418 11.6992 19.7539 11.8828 20.1055 11.8828C20.2734 11.8828 20.4414 11.8398 20.5977 11.75C24.7344 9.39062 29.6172 8.50781 34.3398 9.26562C34.8828 9.35547 35.3945 8.98438 35.4844 8.4375C35.5703 7.89062 35.1992 7.37891 34.6562 7.28906C33.3633 7.08203 32.0586 6.98828 30.7578 7.00391ZM38.6562 8.38672C38.2695 8.40234 37.9062 8.64844 37.7656 9.03516C37.5703 9.55469 37.832 10.1289 38.3516 10.3242C39.0625 10.5898 39.7656 10.8945 40.4531 11.2383C40.5977 11.3125 40.75 11.3477 40.9023 11.3477C41.2656 11.3477 41.6172 11.1484 41.7969 10.7969C42.043 10.3086 41.8437 9.70312 41.3516 9.45312C40.6055 9.07812 39.8281 8.73828 39.0508 8.44922C38.9219 8.40234 38.7891 8.38281 38.6562 8.38672ZM44.9844 15.5469C46.0586 18.707 45.3242 20.9961 45.0586 21.6445C44.9141 22.0039 44.9883 22.4141 45.25 22.6992C46.9805 24.5937 47.8594 26.8906 47.8594 29.5312C47.8594 39.668 41.8516 41.7031 35.9688 42.3555C35.5742 42.3984 35.2422 42.6719 35.125 43.0508C35.0039 43.4297 35.125 43.8437 35.4258 44.1055C36.2148 44.7812 38 47.7148 38 50V55.2539C38 55.2734 38.0039 56.1445 38.2891 56.9922C35.9687 57.6445 33.5273 58 31 58C28.4688 58 26.0234 57.6406 23.6992 56.9883C23.9883 56.1367 23.9961 55.2656 23.9961 55.25L24 54.7148C24.0039 54.2617 24.0117 53.6484 24 51.9961C23.9961 51.6914 23.8594 51.4102 23.625 51.2188C23.3906 51.0312 23.082 50.9609 22.7852 51.0234C16.0703 52.4883 14.6172 47.6406 14.5625 47.4375C14.5508 47.4023 14.5391 47.3711 14.5273 47.3359C13.5664 44.8984 12.3008 43.6562 11.5469 43.0938C13.1758 43.668 14.0859 45.2578 14.1094 45.293C16.7539 49.8203 21.1211 49.9375 23.4062 48.9141C23.7227 48.7734 23.9414 48.4805 23.9883 48.1406C24.1914 46.7109 25.7617 44.8203 26.5547 44.125C26.8516 43.8633 26.9688 43.4492 26.8477 43.0742C26.7305 42.6953 26.4023 42.4219 26.0117 42.3789C20.1445 41.7109 14.1445 39.6602 14.1445 29.5312C14.1445 26.8945 15.0234 24.5937 16.7617 22.6992C17.0234 22.4141 17.0977 22.0039 16.9492 21.6445C16.6836 20.9961 15.9453 18.7148 17.0156 15.5508C17.8672 15.5781 19.9414 15.9414 23.4336 18.3125C23.6758 18.4766 23.9844 18.5273 24.2656 18.4492C26.3555 17.8672 28.6875 17.5547 31 17.543C33.3203 17.5547 35.6523 17.8672 37.7461 18.4492C38.0273 18.5273 38.332 18.4766 38.5742 18.3125C42.0859 15.9297 44.1602 15.5742 44.9844 15.5469ZM21.375 34.3945C20.9844 34.3477 20.5898 34.5273 20.3867 34.8867L19.3867 36.6172C19.1094 37.0977 19.2734 37.707 19.75 37.9844C19.9062 38.0742 20.0781 38.1172 20.25 38.1172C20.5938 38.1172 20.9297 37.9375 21.1133 37.6172L22.1133 35.8867C22.3906 35.4102 22.2305 34.7969 21.75 34.5195C21.6289 34.4531 21.5039 34.4102 21.375 34.3945ZM40.625 34.3945C40.4961 34.4102 40.3672 34.4531 40.25 34.5195C39.7695 34.7969 39.6094 35.4102 39.8867 35.8906L40.8867 37.6211C41.0703 37.9414 41.4062 38.1211 41.75 38.1211C41.9219 38.1211 42.0938 38.0742 42.25 37.9844C42.7305 37.707 42.8906 37.0977 42.6133 36.6211L41.6133 34.8906C41.4063 34.5312 41.0117 34.3477 40.625 34.3945ZM36.1875 36.3438C36.0586 36.3242 35.9219 36.332 35.7852 36.3711C35.2539 36.5117 34.9375 37.0586 35.0781 37.5938L35.5977 39.5273C35.7188 39.9727 36.1211 40.2656 36.5625 40.2656C36.6523 40.2656 36.7383 40.2539 36.8242 40.2344C37.3555 40.0898 37.6758 39.543 37.5312 39.0078L37.0156 37.0781C36.9062 36.6758 36.5703 36.3984 36.1875 36.3438ZM25.8164 36.3438C25.4297 36.3984 25.0938 36.6758 24.9844 37.0781L24.4688 39.0117C24.3242 39.543 24.6445 40.0898 25.1758 40.2344C25.2617 40.2578 25.3477 40.2656 25.4375 40.2656C25.875 40.2656 26.2812 39.9727 26.4023 39.5273L26.9219 37.5938C27.0625 37.0625 26.7461 36.5117 26.2148 36.3711C26.0781 36.332 25.9453 36.3281 25.8164 36.3438ZM31 37C30.4453 37 30 37.4453 30 38V40C30 40.5547 30.4453 41 31 41C31.5547 41 32 40.5547 32 40V38C32 37.4453 31.5547 37 31 37Z"
            fill="black"
    />
</svg>