<svg
        class="social-media"
        width="64"
        height="64"
        viewBox="0 0 64 64"
        fill="none"
        xmlns="http://www.w3.org/2000/svg"
>
    <path
            d="M13 6C9.14062 6 6 9.14062 6 13V51C6 54.8594 9.14062 58 13 58H51C54.8594 58 58 54.8594 58 51V13C58 9.14062 54.8594 6 51 6H13ZM13 8H51C53.7578 8 56 10.2422 56 13V51C56 53.7578 53.7578 56 51 56H13C10.2422 56 8 53.7578 8 51V13C8 10.2422 10.2422 8 13 8ZM48 13C46.3477 13 45 14.3477 45 16C45 17.6523 46.3477 19 48 19C49.6523 19 51 17.6523 51 16C51 14.3477 49.6523 13 48 13ZM48 14.5312C48.8086 14.5312 49.4688 15.1914 49.4688 16C49.4688 16.8086 48.8086 17.4688 48 17.4688C47.1914 17.4688 46.5312 16.8086 46.5312 16C46.5312 15.1914 47.1914 14.5312 48 14.5312ZM32 18C24.2812 18 18 24.2812 18 32C18 39.7188 24.2812 46 32 46C39.7188 46 46 39.7188 46 32C46 24.2812 39.7188 18 32 18ZM32 20C38.6172 20 44 25.3828 44 32C44 38.6172 38.6172 44 32 44C25.3828 44 20 38.6172 20 32C20 25.3828 25.3828 20 32 20ZM32 22C26.4844 22 22 26.4844 22 32C22 37.5156 26.4844 42 32 42C37.5156 42 42 37.5156 42 32C42 26.4844 37.5156 22 32 22ZM32 24C36.4102 24 40 27.5898 40 32C40 36.4102 36.4102 40 32 40C27.5898 40 24 36.4102 24 32C24 27.5898 27.5898 24 32 24ZM12 49C11.4492 49 11 49.4492 11 50V52C11 52.5508 11.4492 53 12 53C12.5508 53 13 52.5508 13 52V50C13 49.4492 12.5508 49 12 49ZM17 49C16.4492 49 16 49.4492 16 50V52C16 52.5508 16.4492 53 17 53C17.5508 53 18 52.5508 18 52V50C18 49.4492 17.5508 49 17 49ZM22 49C21.4492 49 21 49.4492 21 50V52C21 52.5508 21.4492 53 22 53C22.5508 53 23 52.5508 23 52V50C23 49.4492 22.5508 49 22 49ZM27 49C26.4492 49 26 49.4492 26 50V52C26 52.5508 26.4492 53 27 53C27.5508 53 28 52.5508 28 52V50C28 49.4492 27.5508 49 27 49ZM32 49C31.4492 49 31 49.4492 31 50V52C31 52.5508 31.4492 53 32 53C32.5508 53 33 52.5508 33 52V50C33 49.4492 32.5508 49 32 49ZM37 49C36.4492 49 36 49.4492 36 50V52C36 52.5508 36.4492 53 37 53C37.5508 53 38 52.5508 38 52V50C38 49.4492 37.5508 49 37 49ZM42 49C41.4492 49 41 49.4492 41 50V52C41 52.5508 41.4492 53 42 53C42.5508 53 43 52.5508 43 52V50C43 49.4492 42.5508 49 42 49ZM47 49C46.4492 49 46 49.4492 46 50V52C46 52.5508 46.4492 53 47 53C47.5508 53 48 52.5508 48 52V50C48 49.4492 47.5508 49 47 49ZM52 49C51.4492 49 51 49.4492 51 50V52C51 52.5508 51.4492 53 52 53C52.5508 53 53 52.5508 53 52V50C53 49.4492 52.5508 49 52 49Z"
            fill="black"
    />
</svg>